<?xml version="1.0" encoding="UTF-8" standalone="no"?>
<!-- Created with Inkscape (http://www.inkscape.org/) -->

<svg
   version="1.1"
   id="svg2"
   width="131.1653"
   height="131.1653"
   viewBox="0 0 131.1653 131.1653"
   sodipodi:docname="icon.svg"
   inkscape:version="1.1.1 (3bf5ae0d25, 2021-09-20, custom)"
   inkscape:export-filename="/home/rafael/Development/keyswitch-kicad-library/assets/icon.png"
   inkscape:export-xdpi="46.841656"
   inkscape:export-ydpi="46.841656"
   xmlns:inkscape="http://www.inkscape.org/namespaces/inkscape"
   xmlns:sodipodi="http://sodipodi.sourceforge.net/DTD/sodipodi-0.dtd"
   xmlns="http://www.w3.org/2000/svg"
   xmlns:svg="http://www.w3.org/2000/svg">
  <defs
     id="defs6" />
  <sodipodi:namedview
     id="namedview4"
     pagecolor="#505050"
     bordercolor="#eeeeee"
     borderopacity="1"
     inkscape:pageshadow="0"
     inkscape:pageopacity="0"
     inkscape:pagecheckerboard="0"
     showgrid="false"
     fit-margin-top="0"
     fit-margin-left="0"
     fit-margin-right="0"
     fit-margin-bottom="0"
     inkscape:zoom="2.8284271"
     inkscape:rotation="-1"
     inkscape:cx="49.181017"
     inkscape:cy="48.949043"
     inkscape:window-width="1920"
     inkscape:window-height="1033"
     inkscape:window-x="0"
     inkscape:window-y="24"
     inkscape:window-maximized="1"
     inkscape:current-layer="g8" />
  <g
     inkscape:groupmode="layer"
     inkscape:label="Image"
     id="g8"
     transform="translate(-30.417351,-30.417351)">
    <rect
       style="fill:#314cb0;fill-opacity:1;stroke:none;stroke-width:4.87934;stroke-linecap:round;stroke-linejoin:round;stroke-miterlimit:4;stroke-dasharray:none;stroke-opacity:1"
       id="rect27611"
       width="128"
       height="128"
       x="32"
       y="32"
       ry="24.794601" />
    <g
       id="g52743">
      <path
         style="fill:#f9f9f9;fill-opacity:1;stroke:none;stroke-width:1px;stroke-linecap:butt;stroke-linejoin:miter;stroke-opacity:1"
         d="m 40.852027,94.427338 4.740463,-2.101051 2.333518,-3.073052 5.106478,-2.521233 5.006515,-15.636046 0.945499,-2.079917 1.530121,-1.367008 5.653098,-2.377501 28.24763,-11.158576 35.961901,15.603814 8.73143,16.228567 4.44024,1.698913 3.32689,5.689959 c 0,0 3.25907,1.347172 3.55683,1.453677 0.29775,0.106506 1.27316,1.198273 1.27316,1.198273 l 0.21762,3.835373 -0.62163,0.9867 -3.32454,1.25901 0.38095,11.12381 -1.95048,12.9219 -4.38857,1.70667 -3.93142,-2.25524 -0.42667,-0.60953 -0.77715,5.39429 -28.52571,11.70286 -4.9981,-2.07238 -1.11238,0.0914 -1.1628,5.16076 -4.309976,1.72399 -7.413177,-2.7584 -1.914038,0.63555 -37.306667,-15.61143 -0.114285,-1.51619 -4.022856,-1.70666 -2.620953,-14.08 0.06095,-10.97143 -3.334278,-1.709919 0.09491,-3.647448 z"
         id="path26768"
         sodipodi:nodetypes="cccccccccccccsccccccccccccccccccccccccc" />
      <rect
         style="fill:#ff7700;fill-opacity:1;stroke:none;stroke-width:0.856204;stroke-linecap:round;stroke-linejoin:round;stroke-opacity:0.941176"
         id="rect26653"
         width="18.635098"
         height="22.598885"
         x="88.095741"
         y="47.333961" />
      <path
         style="fill:none;stroke:#000000;stroke-width:1px;stroke-linecap:round;stroke-linejoin:round;stroke-opacity:1"
         d="m 59.283918,126.60057 1.825904,0.73402 0.0862,-4.91338 c -1.322219,-3.89956 -2.454154,-6.93999 0.603398,-9.30956 l 2.068632,0.83012 -0.0022,-3.77203 -1.807838,-0.67849 0.5172,-3.10318 c 0.106757,-0.50691 0.367875,-0.93665 1.120595,-1.12059 l 7.499373,3.18938 1.854306,8.78126 2.02468,0.95931 2.407592,12.57517 m -13.663548,-7.15307 c -1.322219,-3.89956 -3.007712,-7.30819 0.04984,-9.67776"
         id="path9655"
         sodipodi:nodetypes="ccccccccccccccc" />
      <path
         style="fill:none;stroke:#000000;stroke-width:1px;stroke-linecap:round;stroke-linejoin:round;stroke-opacity:1"
         d="m 51.568594,91.130729 6.303352,-19.448804 c 0.584602,-2.034059 1.695755,-3.831171 4.563196,-4.837959 l 31.980207,-12.731012 35.961901,15.603814 8.73143,16.228567 3.00477,1.054938 c 1.5701,0.603753 2.88914,1.842716 0.7506,2.908497 l -10.00295,4.478471 -7.86286,-22.567618 -23.15429,9.005711 7.74858,23.161906 -11.154287,4.57142 c -1.19873,0.42578 -2.39746,0.52615 -3.59619,-0.0609 l -4.449523,-2.07238 3.27619,-18.773327 c 0.536367,-2.597742 1.945212,-4.572287 4.754287,-5.546666"
         id="path1669"
         sodipodi:nodetypes="ccccccccccccccccc" />
      <path
         style="fill:#ff7700;fill-opacity:1;stroke:#000000;stroke-width:1px;stroke-linecap:round;stroke-linejoin:round;stroke-opacity:1"
         d="m 72.881465,66.833193 1.680895,-1.637795 20.553938,-8.61387 23.649522,10.361905 1.58476,1.34095 -21.820945,9.26476 z"
         id="path1514" />
      <path
         style="fill:#ffffff;stroke:#000000;stroke-width:1px;stroke-linecap:round;stroke-linejoin:round;stroke-opacity:1"
         d="m 106.70487,47.11105 0.0707,16.884745"
         id="path1363"
         sodipodi:nodetypes="cc" />
      <path
         style="fill:#ffffff;stroke:#000000;stroke-width:1px;stroke-linecap:butt;stroke-linejoin:miter;stroke-opacity:1"
         d="m 88.15249,47.271051 v 9.379045"
         id="path1361" />
      <path
         style="fill:none;stroke:#000000;stroke-width:1px;stroke-linecap:butt;stroke-linejoin:miter;stroke-opacity:1"
         d="m 106.77557,63.995795 -9.884035,3.930492"
         id="path26473" />
      <path
         style="fill:none;stroke:#000000;stroke-width:1px;stroke-linecap:round;stroke-linejoin:round;stroke-opacity:1"
         d="M 74.56236,65.195398 98.529635,75.598669 118.76582,66.943433"
         id="path1516" />
      <path
         style="fill:#ff7700;fill-opacity:1;stroke:#000000;stroke-width:1px;stroke-linecap:round;stroke-linejoin:round;stroke-opacity:1"
         d="m 87.203918,51.377717 -0.07238,17.020952 4.327618,1.828571 5.432382,-2.300953 4.693332,2.01143 4.81524,-2.255241 -0.12334,-16.229047"
         id="path899"
         sodipodi:nodetypes="ccccccc" />
      <path
         style="fill:none;stroke:#000000;stroke-width:1px;stroke-linecap:round;stroke-linejoin:round;stroke-opacity:1"
         d="M 98.529635,77.549143 V 75.598669"
         id="path1518" />
      <path
         style="fill:none;stroke:#000000;stroke-width:1px;stroke-linecap:round;stroke-linejoin:round;stroke-opacity:1"
         d="m 101.58868,53.480575 -0.004,16.457142"
         id="path901" />
      <path
         style="fill:none;stroke:#000000;stroke-width:1px;stroke-linecap:round;stroke-linejoin:round;stroke-opacity:1"
         d="m 96.834395,51.255812 0.05714,16.670475"
         id="path903" />
      <path
         style="fill:none;stroke:#000000;stroke-width:1px;stroke-linecap:round;stroke-linejoin:round;stroke-opacity:1"
         d="m 91.379156,53.693907 0.08,16.533333"
         id="path905" />
      <path
         style="fill:#ff7700;fill-opacity:1;stroke:#000000;stroke-width:1px;stroke-linecap:round;stroke-linejoin:round;stroke-opacity:1"
         d="m 88.15249,47.271051 4.784761,-2.102858 4.502858,1.942857 4.815231,-2.072382 4.44953,2.072382 -4.76667,2.089524 4.33857,2.252855 -4.68809,2.027146 -4.754285,-2.224763 -5.455239,2.438095 -4.175238,-2.31619 4.693334,-2.072382 z"
         id="path895"
         sodipodi:nodetypes="ccccccccccccc" />
      <path
         style="fill:none;stroke:#000000;stroke-width:1px;stroke-linecap:round;stroke-linejoin:round;stroke-opacity:1"
         d="m 98.423007,82.105387 3.420943,-1.280053"
         id="path3053" />
      <path
         style="fill:none;stroke:#000000;stroke-width:1px;stroke-linecap:round;stroke-linejoin:round;stroke-opacity:1"
         d="m 124.99824,71.819623 5.37901,-2.102855"
         id="path3204" />
      <path
         style="fill:none;stroke:#000000;stroke-width:1px;stroke-linecap:butt;stroke-linejoin:miter;stroke-opacity:1"
         d="m 139.10868,85.945335 -8.0381,3.481905"
         id="path3779" />
      <path
         style="fill:none;stroke:#000000;stroke-width:1px;stroke-linecap:butt;stroke-linejoin:miter;stroke-opacity:1"
         d="m 90.39253,106.42538 11.53284,-4.50892 7.66716,2.07078"
         id="path4054" />
      <path
         style="fill:none;stroke:#000000;stroke-width:1px;stroke-linecap:butt;stroke-linejoin:miter;stroke-opacity:1"
         d="m 101.92537,101.91646 -0.0814,-21.091126"
         id="path4056" />
      <path
         style="fill:none;stroke:#000000;stroke-width:1px;stroke-linecap:butt;stroke-linejoin:miter;stroke-opacity:1"
         d="m 51.568594,91.130729 -3.153248,-1.305393 c -0.843328,-0.396205 -0.491768,-0.683783 -0.01524,-0.96 l 4.63238,-2.133334"
         id="path4808"
         sodipodi:nodetypes="cccc" />
      <path
         style="fill:none;stroke:#000000;stroke-width:1px;stroke-linecap:round;stroke-linejoin:round;stroke-opacity:1"
         d="m 47.926008,89.253235 -3.867562,5.223118 c -0.568404,0.771351 -0.349845,1.177327 0.215499,1.422296 l 49.889974,20.606681 c 2.556236,0.93085 3.620829,0.37007 4.937142,0.061 L 147.14677,96.398709 c 0.72639,-0.319373 1.06873,-0.823089 0.36572,-1.828572 l -3.53218,-6.066292"
         id="path5018"
         sodipodi:nodetypes="cccccccc" />
      <path
         style="fill:none;stroke:#000000;stroke-width:1px;stroke-linecap:round;stroke-linejoin:round;stroke-opacity:1"
         d="m 146.87581,93.334207 3.83589,1.573145 c 1.32203,0.53875 1.26489,1.788644 0.34479,2.39204 -0.0919,0.06026 -2.90924,1.486945 -2.90924,1.486945 l -3.68503,-1.142146"
         id="path5758"
         sodipodi:nodetypes="ccscc" />
      <path
         style="fill:none;stroke:#000000;stroke-width:1px;stroke-linecap:round;stroke-linejoin:round;stroke-opacity:1"
         d="m 144.46222,97.644191 -0.12688,19.569709 c 0.009,3.20369 -0.55952,5.06059 -1.58476,5.85143 l -0.73143,4.75429 -3.93142,-2.25524"
         id="path5760"
         sodipodi:nodetypes="ccccc" />
      <path
         style="fill:none;stroke:#000000;stroke-width:1px;stroke-linecap:round;stroke-linejoin:round;stroke-opacity:1"
         d="m 142.01915,127.81962 4.38857,-1.70667 1.95048,-12.9219 -0.21095,-14.404713"
         id="path5762" />
      <path
         style="fill:none;stroke:#000000;stroke-width:1px;stroke-linecap:round;stroke-linejoin:round;stroke-opacity:1"
         d="m 144.44941,101.07785 3.52784,0.98939 2.92571,-1.21229 c 0.98106,-0.45986 1.14987,-1.122895 0.96785,-2.545204 l -0.16501,-2.323589"
         id="path5764"
         sodipodi:nodetypes="ccccc" />
      <path
         style="fill:none;stroke:#000000;stroke-width:1px;stroke-linecap:round;stroke-linejoin:round;stroke-opacity:1"
         d="m 138.59058,100.14724 v 18.49904 l -1.70667,11.70286 -28.52571,11.70286 -4.9981,-2.07238"
         id="path5766"
         sodipodi:nodetypes="ccccc" />
      <path
         style="fill:none;stroke:#000000;stroke-width:1px;stroke-linecap:round;stroke-linejoin:round;stroke-opacity:1"
         d="m 134.06486,102.12819 0.0305,17.52381 -1.58476,8.04572 -18.16381,7.55809 1.58476,-8.04571 -0.36571,-17.55429"
         id="path5768"
         sodipodi:nodetypes="cccccc" />
      <path
         style="fill:none;stroke:#000000;stroke-width:1px;stroke-linecap:round;stroke-linejoin:round;stroke-opacity:1"
         d="m 128.33534,104.44437 0.0305,21.18096 -13.04381,5.48571"
         id="path5770"
         sodipodi:nodetypes="ccc" />
      <path
         style="fill:none;stroke:#000000;stroke-width:1px;stroke-linecap:round;stroke-linejoin:round;stroke-opacity:1"
         d="m 128.36582,125.62533 4.14476,2.07239"
         id="path5772" />
      <path
         style="fill:none;stroke:#000000;stroke-width:1px;stroke-linecap:round;stroke-linejoin:round;stroke-opacity:1"
         d="m 110.17153,112.00248 0.24382,20.11428 c -0.13259,2.38953 -0.44863,4.54319 -1.70667,5.48572 l -6.46096,2.46857"
         id="path5774"
         sodipodi:nodetypes="cccc" />
      <path
         style="fill:none;stroke:#000000;stroke-width:1px;stroke-linecap:round;stroke-linejoin:round;stroke-opacity:1"
         d="m 103.15371,121.47206 0.1724,11.86419 -2.24119,11.89556 -4.309976,1.72399 -7.413178,-2.7584 v -22.96915"
         id="path5776"
         sodipodi:nodetypes="cccccc" />
      <path
         style="fill:none;stroke:#000000;stroke-width:1px;stroke-linecap:round;stroke-linejoin:round;stroke-opacity:1"
         d="m 108.3582,142.052 0.8381,-4.90667"
         id="path5778"
         sodipodi:nodetypes="cc" />
      <path
         style="fill:none;stroke:#000000;stroke-width:1px;stroke-linecap:round;stroke-linejoin:round;stroke-opacity:1"
         d="m 137.66106,124.95485 5.08952,-1.88952"
         id="path5780"
         sodipodi:nodetypes="cc" />
      <path
         style="fill:none;stroke:#000000;stroke-width:1px;stroke-linecap:round;stroke-linejoin:round;stroke-opacity:1"
         d="m 45.59249,92.326287 -4.540953,2.072382 c -0.853963,0.342796 -1.308462,1.683153 0.03048,2.224763 l 15.857899,6.839238 2.585991,-1.2068"
         id="path7987"
         sodipodi:nodetypes="ccccc" />
      <path
         style="fill:none;stroke:#000000;stroke-width:1px;stroke-linecap:round;stroke-linejoin:round;stroke-opacity:1"
         d="m 56.939916,103.46267 0.0862,3.22171 -15.978686,-6.842411 c -1.357548,-0.604627 -0.947949,-0.935045 -0.842877,-4.252096"
         id="path7989"
         sodipodi:nodetypes="cccc" />
      <path
         style="fill:none;stroke:#000000;stroke-width:1px;stroke-linecap:round;stroke-linejoin:round;stroke-opacity:1"
         d="m 43.443918,100.94724 -0.06095,10.97143 2.620953,14.08 4.022856,1.70666"
         id="path8938" />
      <path
         style="fill:none;stroke:#000000;stroke-width:1px;stroke-linecap:butt;stroke-linejoin:miter;stroke-opacity:1"
         d="m 50.209632,103.75105 -0.06857,25.47047 37.306667,15.61143 1.914038,-0.63555"
         id="path9006" />
      <path
         style="fill:none;stroke:#000000;stroke-width:1px;stroke-linecap:butt;stroke-linejoin:miter;stroke-opacity:1"
         d="M 87.447729,144.83295 87.69165,120.20157"
         id="path9008" />
      <path
         style="fill:none;stroke:#000000;stroke-width:1px;stroke-linecap:round;stroke-linejoin:round;stroke-opacity:1"
         d="m 57.026116,106.68438 2.379707,-0.93714 -0.121905,20.85333"
         id="path9010" />
      <path
         style="fill:none;stroke:#000000;stroke-width:1px;stroke-linecap:round;stroke-linejoin:round;stroke-opacity:1"
         d="m 77.417251,109.53391 -2.31619,1.46285 0.06095,3.9619 16.929524,7.1162 c 3.239886,1.37117 6.064317,1.18436 8.655235,0.1219 l 5.66858,-2.37714 -0.061,-4.14476 -2.07238,-1.03619"
         id="path9078"
         sodipodi:nodetypes="cccccccc" />
      <path
         style="fill:none;stroke:#000000;stroke-width:1px;stroke-linecap:butt;stroke-linejoin:miter;stroke-opacity:1"
         d="m 75.101061,110.99676 17.782857,7.42095 c 1.923477,0.89103 3.977431,1.44281 6.704762,0.24381 l 6.76567,-2.98666"
         id="path9146"
         sodipodi:nodetypes="cccc" />
      <path
         style="fill:none;stroke:#000000;stroke-width:1.01105px;stroke-linecap:round;stroke-linejoin:round;stroke-opacity:1"
         d="M 96.774944,146.9558 V 123.16468"
         id="path9504" />
      <path
         style="fill:none;stroke:#000000;stroke-width:1px;stroke-linecap:round;stroke-linejoin:round;stroke-opacity:1"
         d="m 77.40156,115.95623 0.116677,18.1583 -2.321163,-1.21185 -0.131661,-5.24753"
         id="path9859"
         sodipodi:nodetypes="cccc" />
      <path
         style="fill:none;stroke:#000000;stroke-width:1px;stroke-linecap:round;stroke-linejoin:round;stroke-opacity:1"
         d="m 63.865852,110.16974 5.60534,2.25231 0.517196,-2.9308 c 0.0771,-0.57784 0.637624,-0.94087 1.206799,-1.03439"
         id="path9995"
         sodipodi:nodetypes="cccc" />
      <path
         style="fill:none;stroke:#000000;stroke-width:1px;stroke-linecap:round;stroke-linejoin:round;stroke-opacity:1"
         d="m 69.471192,112.42205 1.097708,-0.56712 0.849528,7.84063"
         id="path11688"
         sodipodi:nodetypes="ccc" />
      <path
         d="m 72.641065,126.75981 c -1.222219,-2.84956 -2.499129,-7.20212 0.408423,-9.52169 m 2.015925,10.41703 c -1.322219,-3.89956 -3.048797,-7.08815 0.0088,-9.45772"
         style="fill:none;stroke:#000000;stroke-width:1px;stroke-linecap:round;stroke-linejoin:round;stroke-opacity:1"
         id="path14659"
         sodipodi:nodetypes="cccc" />
      <path
         style="fill:none;stroke:#000000;stroke-width:1px;stroke-linecap:butt;stroke-linejoin:miter;stroke-opacity:1"
         d="m 63.818212,123.61953 -2.62219,-1.19832"
         id="path19421"
         sodipodi:nodetypes="cc" />
      <path
         style="fill:none;stroke:#000000;stroke-width:1px;stroke-linecap:butt;stroke-linejoin:miter;stroke-opacity:1"
         d="m 63.868052,113.94177 -0.04984,9.67776"
         id="path19787"
         sodipodi:nodetypes="cc" />
      <path
         style="fill:none;stroke:#000000;stroke-width:1px;stroke-linecap:butt;stroke-linejoin:miter;stroke-opacity:1"
         d="m 72.641065,126.75981 2.424348,0.89534"
         id="path21084" />
    </g>
  </g>
</svg>
