<?xml version="1.0" encoding="UTF-8"?>
<svg width="128" height="128" version="1.1" viewBox="0 0 128 128" xmlns="http://www.w3.org/2000/svg">
  <g transform="translate(-32,-32)" fill="none" stroke="#000">
    <g stroke-linecap="round" stroke-linejoin="round"></g>
    <g stroke-width="1px">
      <path d="m72.641 126.76 2.4243 0.89534m-11.197-13.715-0.04984 9.6778m-1.6e-4 2e-3 -2.6222-1.1983m11.445 4.3385c-1.2222-2.8496-2.4991-7.2021 0.40842-9.5217m2.0159 10.417c-1.3222-3.8996-3.0488-7.0882 0.0088-9.4577m-5.6031-5.7776 1.0977-0.56712 0.84953 7.8406m-7.5522-9.5235 5.6053 2.2523 0.5172-2.9308c0.0771-0.57784 0.63762-0.94087 1.2068-1.0344m6.2067 7.5029 0.11668 18.158-2.3212-1.2118-0.13166-5.2475m21.709 19.301v-23.791m-21.674-12.169 17.783 7.421c1.9235 0.89103 3.9774 1.4428 6.7048 0.24381l6.7657-2.9867m-28.938-6.1481-2.3162 1.4628 0.06095 3.9619 16.93 7.1162c3.2399 1.3712 6.0643 1.1844 8.6552 0.1219l5.6686-2.3771-0.061-4.1448-2.0724-1.0362m-47.256-7.9547 2.3797-0.93714-0.1219 20.853m28.164 18.234 0.24392-24.631m-37.482-16.449-0.06857 25.47 37.307 15.611 1.914-0.63555m-45.918-43.245-0.06095 10.971 2.621 14.08 4.0229 1.7067m6.913-24.248 0.0862 3.2217-15.979-6.8424c-1.3575-0.60463-0.94795-0.93504-0.84288-4.2521m5.3877-3.2612-4.541 2.0724c-0.85396 0.3428-1.3085 1.6832 0.03048 2.2248l15.858 6.8392 2.586-1.2068m78.135 22.694 5.0895-1.8895m-34.39 18.99 0.8381-4.9067m-6.0481-15.673 0.1724 11.864-2.2412 11.896-4.31 1.724-7.4132-2.7584v-22.969m20.812-9.2266 0.24382 20.114c-0.13259 2.3895-0.44863 4.5432-1.7067 5.4857l-6.461 2.4686m26.124-14.438 4.1448 2.0724m-4.1748-23.262 0.0305 21.181-13.044 5.4857m18.734-28.977 0.0305 17.524-1.5848 8.0457-18.164 7.5581 1.5848-8.0457-0.36571-17.554m23.029-9.5081v18.499l-1.7067 11.703-28.526 11.703-4.9981-2.0724m41.091-38.903 3.5278 0.98939 2.9257-1.2123c0.98106-0.45986 1.1499-1.1229 0.96785-2.5452l-0.16501-2.3236m-9.6863 31.832 4.3886-1.7067 1.9505-12.922-0.21095-14.405m-3.6882-1.1423-0.12688 19.57c9e-3 3.2037-0.55952 5.0606-1.5848 5.8514l-0.73143 4.7543-3.9314-2.2552m8.7945-32.23 3.8359 1.5731c1.322 0.53875 1.2649 1.7886 0.34479 2.392-0.0919 0.06026-2.9092 1.4869-2.9092 1.4869l-3.685-1.1421m-96.54-8.3909-3.8676 5.2231c-0.5684 0.77135-0.34984 1.1773 0.2155 1.4223l49.89 20.607c2.5562 0.93085 3.6208 0.37007 4.9371 0.061l48.046-20.168c0.72639-0.31937 1.0687-0.82309 0.36572-1.8286l-3.5322-6.0663m-92.412 2.6275-3.1532-1.3054c-0.84333-0.3962-0.49177-0.68378-0.01524-0.96l4.6324-2.1333m48.897 15.188-0.0814-21.091m-11.456 25.601 11.533-4.5089 7.6672 2.0708m29.517-18.047-8.0381 3.4819m-6.0719-17.607 5.379-2.1029m-31.956 12.388 3.4209-1.2801m-13.692-33.554 4.7848-2.1029 4.5029 1.9429 4.8152-2.0724 4.4495 2.0724-4.7667 2.0895 4.3386 2.2529-4.6881 2.0271-4.7543-2.2248-5.4552 2.4381-4.1752-2.3162 4.6933-2.0724zm3.227 6.423 0.08 16.533m5.375-18.971 0.05714 16.67m4.6989-14.445-4e-3 16.457m-3.056 7.611v-1.9505m-11.326-24.22-0.07238 17.021 4.3276 1.8286 5.4324-2.301 4.6933 2.0114 4.8152-2.2552-0.12334-16.229m-31.715 13.741 23.967 10.403 20.236-8.6552m-30.613-19.672 0.12819 3.7836m18.42-3.9436 0.0707 16.885m-0.41812-2.4302 0.26757 0.01955 12.146 5.3579 1.5848 1.341-21.821 9.2648-25.649-10.716 1.6809-1.6378 12.603-4.9776m-35.596 30.913 6.3034-19.449c0.5846-2.0341 1.6958-3.8312 4.5632-4.838l24.609-9.7891 0.13467 0.01646m19.159 2.3417 0.0332 0.0041 24.006 10.3 8.7314 16.229 3.0048 1.0549c1.5701 0.60375 2.8891 1.8427 0.7506 2.9085l-10.003 4.4785-7.8629-22.568-23.154 9.0057 7.7486 23.162-11.154 4.5714c-1.1987 0.42578-2.3975 0.52615-3.5962-0.0609l-4.4495-2.0724 3.2762-18.773c0.53637-2.5977 1.9452-4.5723 4.7543-5.5467m-39.14 44.494 1.8259 0.73402 0.0862-4.9134c-1.3222-3.8996-2.4542-6.94 0.6034-9.3096l2.0686 0.83012-0.0022-3.772-1.8078-0.67849 0.5172-3.1032c0.10676-0.50691 0.36788-0.93665 1.1206-1.1206l7.4994 3.1894 1.8543 8.7813 2.0247 0.95931 2.4076 12.575m-13.664-7.1531c-1.3222-3.8996-3.0077-7.3082 0.04984-9.6778m-5.6337-79.591h75.532c13.232 0 23.884 10.652 23.884 23.884v75.532c0 13.232-10.652 23.884-23.884 23.884h-75.532c-13.232 0-23.884-10.652-23.884-23.884v-75.532c0-13.232 10.652-23.884 23.884-23.884z" fill="none"/>
    </g>
  </g>
</svg>
