<?xml version="1.0" encoding="UTF-8"?>
<svg width="128" height="128" version="1.1" viewBox="0 0 128 128" xmlns="http://www.w3.org/2000/svg">
  <g transform="translate(-32 -32)">
    <rect x="34.35" y="34.35" width="123.3" height="123.3" ry="23.884" fill="#314cb0" stroke="#1b2b63" stroke-linecap="round" stroke-linejoin="round" stroke-width="4.7002"/>
    <path d="m40.852 94.427 4.7405-2.1011 2.3335-3.0731 5.1065-2.5212 5.0065-15.636 0.9455-2.0799 1.5301-1.367 5.6531-2.3775 28.248-11.159 35.962 15.604 8.7314 16.229 4.4402 1.6989 3.3269 5.69s3.2591 1.3472 3.5568 1.4537c0.29775 0.10651 1.2732 1.1983 1.2732 1.1983l0.21762 3.8354-0.62163 0.9867-3.3245 1.259 0.38095 11.124-1.9505 12.922-4.3886 1.7067-3.9314-2.2552-0.42667-0.60953-0.77715 5.3943-28.526 11.703-4.9981-2.0724-1.1124 0.0914-1.1628 5.1608-4.31 1.724-7.4132-2.7584-1.914 0.63555-37.307-15.611-0.11428-1.5162-4.0229-1.7067-2.621-14.08 0.06095-10.971-3.3343-1.7099 0.09491-3.6474z" fill="#f9f9f9"/>
    <rect x="88.096" y="47.334" width="18.635" height="22.599" fill="#f70"/>
    <g stroke="#000" stroke-width="1px">
      <g stroke-linecap="round" stroke-linejoin="round">
        <path d="m59.284 126.6 1.8259 0.73402 0.0862-4.9134c-1.3222-3.8996-2.4542-6.94 0.6034-9.3096l2.0686 0.83012-0.0022-3.772-1.8078-0.67849 0.5172-3.1032c0.10676-0.50691 0.36788-0.93665 1.1206-1.1206l7.4994 3.1894 1.8543 8.7813 2.0247 0.95931 2.4076 12.575m-13.664-7.1531c-1.3222-3.8996-3.0077-7.3082 0.04984-9.6778" fill="none"/>
        <path d="m51.569 91.131 6.3034-19.449c0.5846-2.0341 1.6958-3.8312 4.5632-4.838l31.98-12.731 35.962 15.604 8.7314 16.229 3.0048 1.0549c1.5701 0.60375 2.8891 1.8427 0.7506 2.9085l-10.003 4.4785-7.8629-22.568-23.154 9.0057 7.7486 23.162-11.154 4.5714c-1.1987 0.42578-2.3975 0.52615-3.5962-0.0609l-4.4495-2.0724 3.2762-18.773c0.53637-2.5977 1.9452-4.5723 4.7543-5.5467" fill="none"/>
        <path d="m72.881 66.833 1.6809-1.6378 20.554-8.6139 23.65 10.362 1.5848 1.341-21.821 9.2648z" fill="#f70"/>
        <path d="m106.7 47.111 0.0707 16.885" fill="#fff"/>
      </g>
      <path d="m88.152 47.271v9.379" fill="#fff"/>
      <path d="m106.78 63.996-9.884 3.9305" fill="none"/>
      <path d="m74.562 65.195 23.967 10.403 20.236-8.6552" fill="none" stroke-linecap="round" stroke-linejoin="round"/>
      <path d="m87.204 51.378-0.07238 17.021 4.3276 1.8286 5.4324-2.301 4.6933 2.0114 4.8152-2.2552-0.12334-16.229" fill="#f70" stroke-linecap="round" stroke-linejoin="round"/>
    </g>
    <g fill="none" stroke="#000" stroke-linecap="round" stroke-linejoin="round" stroke-width="1px">
      <path d="m98.53 77.549v-1.9505"/>
      <path d="m101.59 53.481-4e-3 16.457"/>
      <path d="m96.834 51.256 0.05714 16.67"/>
      <path d="m91.379 53.694 0.08 16.533"/>
    </g>
    <path d="m88.152 47.271 4.7848-2.1029 4.5029 1.9429 4.8152-2.0724 4.4495 2.0724-4.7667 2.0895 4.3386 2.2529-4.6881 2.0271-4.7543-2.2248-5.4552 2.4381-4.1752-2.3162 4.6933-2.0724z" fill="#f70" stroke="#000" stroke-linecap="round" stroke-linejoin="round" stroke-width="1px"/>
    <g fill="none" stroke="#000">
      <path d="m98.423 82.105 3.4209-1.2801" stroke-linecap="round" stroke-linejoin="round" stroke-width="1px"/>
      <path d="m125 71.82 5.379-2.1029" stroke-linecap="round" stroke-linejoin="round" stroke-width="1px"/>
      <g stroke-width="1px">
        <path d="m139.11 85.945-8.0381 3.4819"/>
        <path d="m90.393 106.43 11.533-4.5089 7.6672 2.0708"/>
        <path d="m101.93 101.92-0.0814-21.091"/>
        <path d="m51.569 91.131-3.1532-1.3054c-0.84333-0.3962-0.49177-0.68378-0.01524-0.96l4.6324-2.1333"/>
      </g>
      <g stroke-linecap="round" stroke-linejoin="round" stroke-width="1px">
        <path d="m47.926 89.253-3.8676 5.2231c-0.5684 0.77135-0.34984 1.1773 0.2155 1.4223l49.89 20.607c2.5562 0.93085 3.6208 0.37007 4.9371 0.061l48.046-20.168c0.72639-0.31937 1.0687-0.82309 0.36572-1.8286l-3.5322-6.0663"/>
        <path d="m146.88 93.334 3.8359 1.5731c1.322 0.53875 1.2649 1.7886 0.34479 2.392-0.0919 0.06026-2.9092 1.4869-2.9092 1.4869l-3.685-1.1421"/>
        <path d="m144.46 97.644-0.12688 19.57c9e-3 3.2037-0.55952 5.0606-1.5848 5.8514l-0.73143 4.7543-3.9314-2.2552"/>
        <path d="m142.02 127.82 4.3886-1.7067 1.9505-12.922-0.21095-14.405"/>
        <path d="m144.45 101.08 3.5278 0.98939 2.9257-1.2123c0.98106-0.45986 1.1499-1.1229 0.96785-2.5452l-0.16501-2.3236"/>
        <path d="m138.59 100.15v18.499l-1.7067 11.703-28.526 11.703-4.9981-2.0724"/>
        <path d="m134.06 102.13 0.0305 17.524-1.5848 8.0457-18.164 7.5581 1.5848-8.0457-0.36571-17.554"/>
        <path d="m128.34 104.44 0.0305 21.181-13.044 5.4857"/>
        <path d="m128.37 125.63 4.1448 2.0724"/>
        <path d="m110.17 112 0.24382 20.114c-0.13259 2.3895-0.44863 4.5432-1.7067 5.4857l-6.461 2.4686"/>
        <path d="m103.15 121.47 0.1724 11.864-2.2412 11.896-4.31 1.724-7.4132-2.7584v-22.969"/>
        <path d="m108.36 142.05 0.8381-4.9067"/>
        <path d="m137.66 124.95 5.0895-1.8895"/>
        <path d="m45.592 92.326-4.541 2.0724c-0.85396 0.3428-1.3085 1.6832 0.03048 2.2248l15.858 6.8392 2.586-1.2068"/>
        <path d="m56.94 103.46 0.0862 3.2217-15.979-6.8424c-1.3575-0.60463-0.94795-0.93504-0.84288-4.2521"/>
        <path d="m43.444 100.95-0.06095 10.971 2.621 14.08 4.0229 1.7067"/>
      </g>
      <g stroke-width="1px">
        <path d="m50.21 103.75-0.06857 25.47 37.307 15.611 1.914-0.63555"/>
        <path d="m87.448 144.83 0.24392-24.631"/>
        <path d="m57.026 106.68 2.3797-0.93714-0.1219 20.853" stroke-linecap="round" stroke-linejoin="round"/>
        <path d="m77.417 109.53-2.3162 1.4628 0.06095 3.9619 16.93 7.1162c3.2399 1.3712 6.0643 1.1844 8.6552 0.1219l5.6686-2.3771-0.061-4.1448-2.0724-1.0362" stroke-linecap="round" stroke-linejoin="round"/>
        <path d="m75.101 111 17.783 7.421c1.9235 0.89103 3.9774 1.4428 6.7048 0.24381l6.7657-2.9867"/>
      </g>
      <g stroke-linecap="round" stroke-linejoin="round">
        <path d="m96.775 146.96v-23.791" stroke-width="1.011px"/>
        <g stroke-width="1px">
          <path d="m77.402 115.96 0.11668 18.158-2.3212-1.2118-0.13166-5.2475"/>
          <path d="m63.866 110.17 5.6053 2.2523 0.5172-2.9308c0.0771-0.57784 0.63762-0.94087 1.2068-1.0344"/>
          <path d="m69.471 112.42 1.0977-0.56712 0.84953 7.8406"/>
          <path d="m72.641 126.76c-1.2222-2.8496-2.4991-7.2021 0.40842-9.5217m2.0159 10.417c-1.3222-3.8996-3.0488-7.0882 0.0088-9.4577"/>
        </g>
      </g>
      <g stroke-width="1px">
        <path d="m63.818 123.62-2.6222-1.1983"/>
        <path d="m63.868 113.94-0.04984 9.6778"/>
        <path d="m72.641 126.76 2.4243 0.89534"/>
      </g>
    </g>
  </g>
</svg>
